<?xml version="1.0" encoding="utf-8"?>
<!-- Generator: Adobe Illustrator 24.3.0, SVG Export Plug-In . SVG Version: 6.00 Build 0)  -->
<svg version="1.1" id="Capa_1" xmlns="http://www.w3.org/2000/svg" xmlns:xlink="http://www.w3.org/1999/xlink" x="0px" y="0px"
	 viewBox="0 0 75.2 24.1" style="enable-background:new 0 0 75.2 24.1;" xml:space="preserve">
<style type="text/css">
	.st0{fill:#FFFFFF;}
</style>
<g>
	<path class="st0" d="M13.1,8.1h2.8c0.4,0.7,0.8,1.3,1.1,2c0.2,0.3,0.3,0.5,0.5,0.8c0.2,0.3,0.3,0.6,0.5,0.8
		c0.2,0.3,0.3,0.5,0.4,0.8c0.1,0.2,0.3,0.4,0.4,0.6l3.4-5h3.2c-0.1,0.2-0.1,0.4-0.1,0.6c0,0.2-0.1,0.5-0.1,0.7c0,0.2,0,0.5,0,0.7
		c0,0.2,0,0.4,0,0.6v4.5c0,0.2,0,0.4,0,0.6c0,0.2,0,0.5,0,0.7c0,0.2,0.1,0.5,0.1,0.7c0,0.2,0.1,0.4,0.1,0.6h-3.5
		c0.1-0.2,0.1-0.3,0.1-0.5c0-0.2,0.1-0.4,0.1-0.6c0-0.2,0-0.4,0-0.6c0-0.2,0-0.4,0-0.6V8.3c-0.1,0.1-0.2,0.2-0.3,0.5
		c-0.1,0.2-0.3,0.4-0.5,0.7c-0.2,0.3-0.4,0.6-0.6,0.9c-0.2,0.3-0.4,0.7-0.7,1c-0.2,0.3-0.4,0.7-0.7,1c-0.2,0.3-0.4,0.6-0.6,0.9
		c0,0.1,0.1,0.1,0.1,0.2c0,0.1,0.1,0.1,0.1,0.1c0,0,0,0.1,0.1,0.1c0.1,0.2,0.3,0.5,0.4,0.8c0.1,0.3,0.2,0.5,0.3,0.8
		c0.1,0.3,0.2,0.5,0.2,0.8c0.1,0.3,0.1,0.6,0.1,0.9c0,0.2,0,0.5-0.1,0.7c-0.1,0.2-0.1,0.5-0.3,0.7c-0.1,0.2-0.3,0.4-0.4,0.6
		c-0.2,0.2-0.4,0.3-0.6,0.4c-0.2,0.1-0.3,0.1-0.5,0.1c-0.2,0-0.3,0-0.5,0c-0.2,0-0.3,0-0.5-0.1c-0.2-0.1-0.3-0.1-0.4-0.2
		c-0.1-0.1-0.2-0.2-0.3-0.3c-0.1-0.1-0.2-0.2-0.2-0.3c-0.1-0.2-0.1-0.4-0.1-0.6c0-0.2,0-0.4,0.1-0.6c0.1-0.2,0.2-0.5,0.3-0.7
		c0.1-0.2,0.3-0.5,0.4-0.7c-0.1-0.2-0.2-0.3-0.3-0.4c-0.1-0.1-0.2-0.3-0.2-0.4c-0.1-0.1-0.1-0.2-0.2-0.3c-0.2-0.3-0.3-0.6-0.5-0.9
		c-0.2-0.3-0.4-0.7-0.6-1c-0.2-0.3-0.4-0.7-0.6-1c-0.2-0.3-0.4-0.7-0.6-1c-0.2-0.3-0.3-0.6-0.5-0.9c-0.1-0.3-0.3-0.5-0.4-0.6v5.3
		c0,0.2,0,0.4,0.1,0.5s0.2,0.3,0.3,0.4c0.1,0.1,0.3,0.2,0.5,0.3c0.2,0.1,0.4,0.1,0.6,0.1v2c-0.2,0-0.4,0-0.6-0.1
		c-0.2-0.1-0.3-0.2-0.5-0.3c-0.1-0.1-0.2-0.3-0.3-0.5c-0.1-0.2-0.1-0.4-0.1-0.6V8.1z M16.3,17.6c-0.1,0.3,0,0.6,0.1,0.8
		c0.1,0.2,0.3,0.4,0.5,0.6c0.2,0.1,0.3,0.1,0.5,0.1c0.2,0,0.3,0,0.4-0.1c0.1-0.1,0.2-0.2,0.2-0.4c0-0.2,0-0.4,0-0.7
		c-0.1-0.3-0.2-0.6-0.4-1c-0.1-0.2-0.2-0.3-0.2-0.5c-0.1-0.2-0.2-0.3-0.2-0.4c-0.2,0.3-0.3,0.6-0.5,0.9S16.4,17.3,16.3,17.6z"/>
	<path class="st0" d="M26.7,17.9c0.1-0.2,0.1-0.4,0.1-0.6c0-0.2,0.1-0.5,0.1-0.7c0-0.2,0-0.5,0-0.7c0-0.2,0-0.4,0-0.6v-1.8
		c0-0.2,0-0.4,0-0.6c0-0.2,0-0.5,0-0.7c0-0.2,0-0.5-0.1-0.7c0-0.2-0.1-0.4-0.1-0.6h3.5c-0.1,0.2-0.1,0.4-0.1,0.6
		c0,0.2-0.1,0.4-0.1,0.7c0,0.2,0,0.5,0,0.7c0,0.2,0,0.4,0,0.6v1.9c0,0.2,0,0.4,0,0.6c0,0.2,0,0.5,0,0.7c0,0.2,0.1,0.5,0.1,0.7
		c0,0.2,0.1,0.4,0.1,0.6H26.7z M27.1,9.2c0.3-0.2,0.5-0.4,0.7-0.6c0.2-0.2,0.4-0.5,0.6-0.8c0.2,0.3,0.4,0.5,0.6,0.7
		c0.2,0.2,0.5,0.4,0.8,0.6c-0.3,0.2-0.6,0.4-0.8,0.6c-0.2,0.2-0.4,0.5-0.6,0.7c-0.2-0.3-0.4-0.5-0.6-0.7C27.6,9.6,27.4,9.4,27.1,9.2
		z"/>
	<path class="st0" d="M31.5,17.9c0.1-0.4,0.2-0.8,0.2-1.2c0-0.4,0-0.8,0-1.2v-4.8c0-0.2,0-0.5,0-0.7c0-0.3,0-0.5,0-0.7
		c0-0.2,0-0.5-0.1-0.7c0-0.2-0.1-0.4-0.1-0.5C32,8,32.4,7.9,32.8,7.8c0.2,0,0.3-0.1,0.5-0.1c0.2,0,0.4-0.1,0.5-0.1
		c0.2,0,0.3-0.1,0.5-0.1c0.1,0,0.3-0.1,0.4-0.1v8.1c0,0.2,0,0.5,0,0.7c0,0.2,0,0.4,0,0.7c0,0.2,0,0.4,0.1,0.6c0,0.2,0.1,0.3,0.1,0.5
		H31.5z"/>
	<path class="st0" d="M36.5,12.5c0-0.2,0-0.4,0-0.6c0-0.2,0-0.4-0.1-0.6c0-0.2-0.1-0.3-0.1-0.5c0.2,0,0.4,0,0.6,0c0.3,0,0.6,0,0.8,0
		c0.3,0,0.6,0,0.9,0c0.3,0,0.5,0,0.8,0v4.7c0,0.2,0,0.3,0.1,0.5c0,0.2,0.1,0.3,0.2,0.4c0.1,0.1,0.2,0.2,0.3,0.3
		c0.1,0.1,0.3,0.1,0.5,0.1c0.4,0,0.8-0.2,1.1-0.6c0.3-0.4,0.6-0.9,0.7-1.6v-1.4c0-0.2,0-0.4,0-0.7c0-0.2,0-0.4,0-0.7
		c0-0.2,0-0.4-0.1-0.6c0-0.2-0.1-0.3-0.1-0.5c0.2,0,0.4,0,0.6,0c0.3,0,0.6,0,0.9,0c0.3,0,0.6,0,0.9,0c0.3,0,0.5,0,0.8,0v4.4
		c0,0.2,0,0.5,0,0.7c0,0.2,0,0.5,0,0.7c0,0.2,0,0.5,0.1,0.7c0,0.2,0.1,0.4,0.1,0.5h-2.9c-0.1-0.2-0.1-0.6-0.2-0.9
		c0-0.4-0.1-0.8-0.1-1.2V15c-0.1,0.4-0.2,0.8-0.4,1.1c-0.2,0.4-0.4,0.7-0.7,1c-0.3,0.3-0.6,0.5-1,0.7c-0.4,0.2-0.8,0.3-1.3,0.3
		c-0.5,0-0.9-0.1-1.2-0.2c-0.3-0.2-0.6-0.4-0.8-0.6c-0.2-0.2-0.3-0.5-0.4-0.9c-0.1-0.3-0.1-0.6-0.1-1v-2.2
		C36.5,13,36.5,12.8,36.5,12.5z"/>
	<path class="st0" d="M47.1,10c0-0.3,0-0.5,0-0.7c0-0.2,0-0.5-0.1-0.7c0-0.2-0.1-0.4-0.1-0.5c0.4-0.1,0.9-0.2,1.3-0.3
		c0.2,0,0.3-0.1,0.5-0.1c0.2,0,0.4-0.1,0.5-0.1c0.2,0,0.3-0.1,0.5-0.1c0.1,0,0.3-0.1,0.4-0.1v5.4c0,0,0-0.1,0-0.1c0,0,0-0.1,0-0.1
		c0.2-0.3,0.4-0.6,0.7-0.9c0.3-0.3,0.6-0.5,0.9-0.6c0.3-0.2,0.6-0.3,0.9-0.4c0.3-0.1,0.6-0.1,0.9-0.1c0.2,0,0.4,0,0.6,0.1
		c0.2,0.1,0.3,0.2,0.4,0.3c0.1,0.1,0.2,0.3,0.2,0.4c0,0.2,0,0.3,0,0.5c0,0.2-0.1,0.4-0.2,0.6c-0.1,0.2-0.3,0.4-0.5,0.6
		c-0.2,0.2-0.4,0.3-0.6,0.4c-0.2-0.4-0.5-0.7-0.9-0.9c-0.4-0.2-0.8-0.3-1.2-0.3c-0.2,0-0.5,0-0.7,0.1s-0.4,0.2-0.4,0.3
		C50,12.9,50,13,50,13.1c0,0.1,0.1,0.2,0.2,0.3c0.1,0.1,0.2,0.1,0.3,0.2c0.1,0,0.3,0.1,0.4,0.1c0.1,0,0.3,0,0.4,0.1
		c0.1,0,0.3,0,0.4,0c0.3,0,0.6,0,0.9,0.1c0.2,0.1,0.5,0.2,0.7,0.3c0.2,0.1,0.4,0.3,0.5,0.5s0.3,0.5,0.5,0.8c0.3,0.5,0.6,0.9,0.8,1.4
		c0.3,0.4,0.5,0.8,0.8,1.1h-4c-0.1-0.4-0.1-0.8-0.3-1.1s-0.3-0.7-0.4-1.1c-0.1-0.2-0.2-0.4-0.3-0.6c-0.1-0.2-0.3-0.4-0.4-0.6
		c-0.1-0.2-0.2-0.4-0.3-0.6c-0.1-0.2-0.2-0.4-0.2-0.6v2.2c0,0.2,0,0.5,0,0.7c0,0.2,0,0.4,0,0.7c0,0.2,0,0.4,0.1,0.6
		c0,0.2,0.1,0.3,0.1,0.5h-3.4c0.1-0.3,0.2-0.6,0.2-1c0-0.4,0.1-0.8,0.1-1.3v-4.8C47.1,10.5,47.1,10.3,47.1,10z"/>
</g>
<g>
	<path class="st0" d="M53.9,5.1v3.1h-0.6V5.1H53.9z"/>
	<path class="st0" d="M54.5,8.2V5.1h0.6l0.8,1.3c0.2,0.3,0.4,0.7,0.5,1l0,0c0-0.4-0.1-0.8-0.1-1.3V5.1H57v3.1h-0.6l-0.8-1.4
		c-0.2-0.3-0.4-0.7-0.6-1.1l0,0c0,0.4,0,0.8,0,1.3v1.1H54.5z"/>
	<path class="st0" d="M57.6,5.1h0.6v1.4h0c0.1-0.1,0.2-0.2,0.2-0.3l0.8-1.1h0.7l-1.1,1.3L60,8.2h-0.7l-0.9-1.4l-0.3,0.3v1.1h-0.6
		V5.1z"/>
</g>
</svg>
