<?xml version="1.0" encoding="utf-8"?>
<!-- Generator: Adobe Illustrator 24.3.0, SVG Export Plug-In . SVG Version: 6.00 Build 0)  -->
<svg version="1.1" id="Capa_1" xmlns="http://www.w3.org/2000/svg" xmlns:xlink="http://www.w3.org/1999/xlink" x="0px" y="0px"
	 viewBox="0 0 115.2 37" style="enable-background:new 0 0 115.2 37;" xml:space="preserve">
<style type="text/css">
	.st0{fill:#FFFFFF;}
</style>
<g>
	
		<image style="overflow:visible;" width="161" height="98" xlink:href="984C0089C964E5B6.png"  transform="matrix(1 0 0 1 -27 -28)">
	</image>
</g>
<g>
	<path class="st0" d="M9.6,10.6h5.7c0.8,1.4,1.6,2.7,2.3,4c0.3,0.5,0.6,1.1,1,1.7c0.3,0.6,0.7,1.1,1,1.7c0.3,0.5,0.6,1.1,0.9,1.5
		c0.3,0.5,0.5,0.9,0.7,1.3L28,10.6h6.5c-0.1,0.4-0.2,0.8-0.3,1.2s-0.1,0.9-0.2,1.4c0,0.5-0.1,1-0.1,1.4c0,0.5,0,0.9,0,1.3V25
		c0,0.4,0,0.8,0,1.3c0,0.5,0,1,0.1,1.4c0,0.5,0.1,1,0.2,1.4s0.2,0.9,0.3,1.2h-7c0.1-0.3,0.2-0.7,0.3-1.1c0.1-0.4,0.1-0.8,0.2-1.3
		c0-0.4,0.1-0.9,0.1-1.3c0-0.4,0-0.8,0-1.2V10.9c-0.1,0.2-0.3,0.5-0.6,0.9c-0.3,0.4-0.6,0.9-1,1.4c-0.4,0.5-0.8,1.1-1.2,1.8
		c-0.4,0.7-0.9,1.3-1.3,2c-0.5,0.7-0.9,1.3-1.4,2c-0.5,0.7-0.9,1.3-1.3,1.9c0.1,0.2,0.2,0.3,0.2,0.4c0.1,0.1,0.1,0.2,0.2,0.3
		c0,0.1,0.1,0.2,0.1,0.3c0.3,0.5,0.6,1,0.8,1.5c0.3,0.5,0.5,1,0.7,1.6s0.3,1.1,0.4,1.7c0.1,0.6,0.2,1.1,0.1,1.7
		c0,0.5-0.1,0.9-0.2,1.4c-0.1,0.5-0.3,0.9-0.5,1.4s-0.5,0.8-0.9,1.2c-0.3,0.3-0.7,0.6-1.2,0.8c-0.3,0.1-0.7,0.2-1,0.3
		c-0.3,0-0.7,0.1-1.1,0c-0.4,0-0.7-0.1-1-0.2c-0.3-0.1-0.6-0.3-0.9-0.4c-0.2-0.2-0.5-0.4-0.6-0.6c-0.2-0.2-0.3-0.4-0.4-0.6
		c-0.1-0.4-0.2-0.8-0.2-1.2c0-0.4,0.1-0.8,0.2-1.3c0.1-0.5,0.3-0.9,0.6-1.4c0.2-0.5,0.5-1,0.8-1.5c-0.2-0.3-0.4-0.6-0.5-0.9
		s-0.3-0.5-0.4-0.7c-0.1-0.2-0.3-0.5-0.4-0.7c-0.3-0.6-0.7-1.2-1.1-1.9c-0.4-0.7-0.8-1.4-1.2-2.1c-0.4-0.7-0.8-1.4-1.2-2.1
		s-0.8-1.4-1.1-2c-0.4-0.6-0.7-1.2-1-1.7c-0.3-0.5-0.5-1-0.7-1.3v10.8c0,0.4,0.1,0.8,0.2,1.1s0.4,0.6,0.6,0.9
		c0.3,0.3,0.6,0.5,0.9,0.6c0.3,0.1,0.7,0.2,1.1,0.2v4c-0.4,0-0.8,0-1.2-0.2c-0.4-0.1-0.7-0.3-1-0.6c-0.3-0.3-0.5-0.6-0.7-0.9
		c-0.2-0.4-0.2-0.8-0.2-1.2V10.6z M16.1,29.8C16,30.4,16,31,16.2,31.5c0.2,0.5,0.6,0.8,1.1,1.2c0.3,0.2,0.6,0.3,0.9,0.3
		c0.3,0,0.6-0.1,0.8-0.3s0.4-0.5,0.5-0.9c0.1-0.4,0-0.9-0.1-1.5c-0.1-0.6-0.4-1.3-0.9-2c-0.2-0.3-0.3-0.6-0.5-0.9s-0.3-0.6-0.5-0.9
		c-0.4,0.6-0.7,1.2-0.9,1.7S16.2,29.2,16.1,29.8z"/>
	<path class="st0" d="M37.1,30.4c0.1-0.4,0.2-0.8,0.3-1.2c0.1-0.5,0.1-0.9,0.2-1.4c0-0.5,0.1-1,0.1-1.4c0-0.5,0-0.9,0-1.3v-3.6
		c0-0.4,0-0.8,0-1.3c0-0.5,0-1-0.1-1.4c0-0.5-0.1-1-0.2-1.4c-0.1-0.5-0.2-0.9-0.3-1.2h7c-0.1,0.3-0.2,0.7-0.3,1.2s-0.1,0.9-0.2,1.4
		c0,0.5-0.1,0.9-0.1,1.4c0,0.5,0,0.9,0,1.3v3.8c0,0.4,0,0.8,0,1.3c0,0.5,0,0.9,0.1,1.4c0,0.5,0.1,1,0.2,1.4c0.1,0.5,0.2,0.9,0.3,1.2
		H37.1z M37.9,12.7c0.5-0.4,1-0.7,1.5-1.2c0.5-0.4,0.9-1,1.3-1.6c0.3,0.5,0.7,1,1.2,1.5c0.5,0.5,1,0.9,1.6,1.3
		c-0.6,0.4-1.1,0.8-1.6,1.3c-0.5,0.5-0.8,0.9-1.2,1.4c-0.4-0.5-0.8-1-1.2-1.5S38.5,13.1,37.9,12.7z"/>
	<path class="st0" d="M46.9,30.4c0.2-0.7,0.4-1.5,0.5-2.4c0.1-0.8,0.1-1.6,0.1-2.4v-9.7c0-0.5,0-1,0-1.5c0-0.5,0-1-0.1-1.5
		c0-0.5-0.1-0.9-0.2-1.3c-0.1-0.4-0.2-0.8-0.3-1.1c0.9-0.2,1.8-0.4,2.6-0.6c0.3-0.1,0.7-0.2,1.1-0.2c0.4-0.1,0.7-0.2,1.1-0.2
		c0.3-0.1,0.6-0.1,0.9-0.2s0.5-0.1,0.7-0.2v16.3c0,0.5,0,0.9,0,1.4c0,0.5,0.1,0.9,0.1,1.3s0.1,0.8,0.2,1.2c0.1,0.4,0.1,0.7,0.2,1
		H46.9z"/>
	<path class="st0" d="M57,19.5c0-0.4-0.1-0.9-0.1-1.3c0-0.4-0.1-0.8-0.2-1.2c-0.1-0.4-0.1-0.7-0.2-0.9c0.3,0,0.8,0,1.3,0
		c0.5,0,1.1,0,1.7,0c0.6,0,1.2,0,1.8,0c0.6,0,1.1,0,1.5,0v9.5c0,0.4,0,0.7,0.1,1c0.1,0.3,0.2,0.6,0.4,0.8c0.2,0.2,0.4,0.4,0.7,0.5
		c0.3,0.1,0.6,0.2,1,0.2c0.8,0,1.6-0.4,2.2-1.2c0.7-0.8,1.1-1.9,1.5-3.3V21c0-0.5,0-0.9,0-1.4c0-0.5-0.1-0.9-0.1-1.3
		c0-0.4-0.1-0.8-0.2-1.2c-0.1-0.4-0.2-0.7-0.2-1c0.3,0,0.8,0,1.3,0c0.5,0,1.1,0,1.7,0s1.2,0,1.8,0s1.1,0,1.5,0V25c0,0.5,0,1,0,1.5
		s0,1,0.1,1.5s0.1,0.9,0.2,1.3c0.1,0.4,0.1,0.8,0.2,1.1h-5.8c-0.2-0.5-0.3-1.1-0.4-1.9c-0.1-0.8-0.1-1.5-0.1-2.4v-1.6
		c-0.1,0.8-0.4,1.5-0.7,2.3c-0.3,0.7-0.8,1.4-1.3,2c-0.5,0.6-1.2,1.1-2,1.4s-1.7,0.5-2.7,0.5c-0.9,0-1.7-0.2-2.3-0.5
		c-0.6-0.3-1.1-0.7-1.5-1.2s-0.7-1.1-0.8-1.7c-0.2-0.6-0.2-1.3-0.2-2v-4.5C57.1,20.4,57.1,20,57,19.5z"/>
	<path class="st0" d="M78.4,14.4c0-0.5,0-1-0.1-1.5c0-0.5-0.1-0.9-0.2-1.3c-0.1-0.4-0.2-0.8-0.3-1.1c0.9-0.2,1.8-0.4,2.6-0.6
		c0.3-0.1,0.7-0.2,1.1-0.2c0.4-0.1,0.7-0.2,1.1-0.2c0.3-0.1,0.6-0.1,0.9-0.2c0.3-0.1,0.5-0.1,0.7-0.2V20c0-0.1,0-0.1,0.1-0.2
		c0-0.1,0-0.2,0.1-0.2c0.3-0.7,0.8-1.3,1.3-1.8c0.6-0.5,1.1-0.9,1.8-1.3c0.6-0.3,1.3-0.6,1.9-0.8c0.6-0.2,1.2-0.2,1.7-0.2
		c0.5,0,0.9,0.1,1.2,0.2c0.3,0.1,0.6,0.4,0.8,0.6c0.2,0.3,0.3,0.6,0.4,0.9c0.1,0.3,0.1,0.7,0,1.1c-0.1,0.4-0.2,0.8-0.4,1.2
		c-0.2,0.5-0.5,0.9-0.9,1.3c-0.4,0.4-0.8,0.7-1.1,0.9c-0.4-0.8-1-1.4-1.7-1.8c-0.7-0.4-1.6-0.6-2.5-0.6c-0.5,0-0.9,0.1-1.3,0.2
		s-0.7,0.4-0.9,0.7c-0.2,0.3-0.2,0.5-0.2,0.7c0,0.2,0.1,0.4,0.3,0.5c0.2,0.1,0.4,0.3,0.7,0.4c0.3,0.1,0.6,0.2,0.9,0.2
		c0.3,0.1,0.6,0.1,0.9,0.1c0.3,0,0.5,0,0.8,0c0.7,0,1.3,0.1,1.8,0.2c0.5,0.1,0.9,0.4,1.3,0.6c0.4,0.3,0.7,0.6,1.1,1.1s0.7,1,1,1.5
		c0.6,1,1.1,1.9,1.7,2.8c0.5,0.9,1.1,1.6,1.7,2.2h-8.1c-0.1-0.8-0.3-1.5-0.5-2.3s-0.5-1.5-0.9-2.1c-0.2-0.4-0.4-0.8-0.7-1.2
		c-0.3-0.4-0.5-0.8-0.8-1.2s-0.5-0.8-0.7-1.3c-0.2-0.4-0.4-0.8-0.4-1.3v4.4c0,0.5,0,0.9,0,1.4s0.1,0.9,0.1,1.3
		c0,0.4,0.1,0.8,0.2,1.2c0.1,0.4,0.1,0.7,0.2,1h-6.9c0.2-0.6,0.4-1.3,0.4-2.1s0.1-1.7,0.1-2.7v-9.7C78.4,15.5,78.4,15,78.4,14.4z"/>
</g>
<g>
	<path class="st0" d="M92.2,4.4v6.2H91V4.4H92.2z"/>
	<path class="st0" d="M93.5,10.7V4.4h1.3l1.6,2.7c0.4,0.7,0.8,1.4,1.1,2.1l0,0c-0.1-0.8-0.1-1.6-0.1-2.6V4.4h1.1v6.2h-1.2l-1.6-2.7
		c-0.4-0.7-0.8-1.4-1.1-2.1l0,0c0,0.8,0.1,1.6,0.1,2.7v2.2H93.5z"/>
	<path class="st0" d="M99.7,4.4h1.1v2.9h0c0.1-0.2,0.3-0.5,0.5-0.7l1.6-2.2h1.4l-2.1,2.7l2.3,3.6h-1.3l-1.8-2.9l-0.6,0.7v2.2h-1.1
		V4.4z"/>
</g>
</svg>
